<?xml version="1.0" encoding="iso-8859-1"?>
<!-- Generator: Adobe Illustrator 19.0.0, SVG Export Plug-In . SVG Version: 6.00 Build 0)  -->
<svg xmlns="http://www.w3.org/2000/svg" xmlns:xlink="http://www.w3.org/1999/xlink" version="1.1" id="Layer_1" x="0px" y="0px" viewBox="0 0 512 512" style="enable-background:new 0 0 512 512;" xml:space="preserve" width="512px" height="512px">
<g>
	<g>
		<path d="M318.069,43.886C309.012,18.343,284.609,0,256,0s-53.012,18.343-62.069,43.886H80.457V512h351.086V43.886H318.069z     M160.914,87.771h73.143V65.829c0-12.099,9.844-21.943,21.943-21.943c12.099,0,21.943,9.844,21.943,21.943v21.943h73.143v29.257    H160.914V87.771z M146.286,248.686h43.886v43.886h-43.886V248.686z M190.171,468.114h-43.886v-43.886h43.886V468.114z     M277.943,468.114h-43.886v-43.886h43.886V468.114z M365.714,468.114h-43.886v-43.886h43.886V468.114z M365.714,380.343H146.286    v-43.886h219.429V380.343z M234.057,292.571v-43.886h43.886v43.886H234.057z M365.714,292.571h-43.886v-43.886h43.886V292.571z     M365.714,204.8H146.286v-43.886h219.429V204.8z" fill="#FFFFFF"/>
	</g>
</g>
<g>
</g>
<g>
</g>
<g>
</g>
<g>
</g>
<g>
</g>
<g>
</g>
<g>
</g>
<g>
</g>
<g>
</g>
<g>
</g>
<g>
</g>
<g>
</g>
<g>
</g>
<g>
</g>
<g>
</g>
</svg>
