<?xml version="1.0" encoding="iso-8859-1"?>
<!-- Generator: Adobe Illustrator 19.0.0, SVG Export Plug-In . SVG Version: 6.00 Build 0)  -->
<svg xmlns="http://www.w3.org/2000/svg" xmlns:xlink="http://www.w3.org/1999/xlink" version="1.1" id="Layer_1" x="0px" y="0px" viewBox="0 0 512 512" style="enable-background:new 0 0 512 512;" xml:space="preserve" width="512px" height="512px">
<g>
	<g>
		<g>
			<path d="M259.076,233.146c-5.808,0-10.517,4.709-10.517,10.517v1.052c0,5.807,4.708,10.517,10.517,10.517     s10.517-4.709,10.517-10.517v-1.052C269.593,237.855,264.884,233.146,259.076,233.146z" fill="#FFFFFF"/>
			<circle cx="227.526" cy="147.243" r="10.517" fill="#FFFFFF"/>
			<circle cx="290.626" cy="147.243" r="10.517" fill="#FFFFFF"/>
			<path d="M436.263,253.646h-37.842V224.73c0-12.908-1.81-25.732-5.3-38.064h14.923c41.761,0,75.737-33.976,75.737-75.737V46.653     c0-5.807-4.708-10.517-10.517-10.517c-5.808,0-10.517,4.709-10.517,10.517v64.276c0,30.164-24.539,54.704-54.704,54.704h-22.751     c-1.279-2.732-2.643-5.424-4.1-8.069c-6.339-11.502-14.275-22.054-23.584-31.365c-11.143-11.144-23.846-20.158-37.612-26.859     c6.538-10.943,10.066-23.52,10.066-36.394V28.767c0-5.807-4.708-10.517-10.517-10.517c-5.808,0-10.517,4.709-10.517,10.517     v34.179c0,10.231-3.162,20.198-8.974,28.537c-13.108-4.013-26.884-6.096-40.98-6.096c-14.081,0-27.855,2.135-40.937,6.161     c-5.84-8.352-9.017-18.344-9.017-28.601V28.767c0-5.807-4.708-10.517-10.517-10.517c-5.808,0-10.517,4.709-10.517,10.517v34.179     c0,12.905,3.547,25.512,10.115,36.473c-25.41,12.351-46.952,32.334-61.116,57.923c-0.001,0.001-0.002,0.002-0.003,0.004     c-1.504,2.714-2.906,5.481-4.22,8.288h-28.908c-30.164,0-54.704-24.54-54.704-54.704V46.653c0-5.807-4.708-10.517-10.517-10.517     c-5.808,0-10.517,4.709-10.517,10.517v64.276c0,41.761,33.976,75.737,75.737,75.737h21.076     c-3.491,12.33-5.301,25.153-5.301,38.064v28.916H75.737C33.976,253.646,0,287.622,0,329.384v64.276     c0,5.807,4.708,10.517,10.517,10.517c5.808,0,10.517-4.709,10.517-10.517v-64.276c0-30.164,24.539-54.704,54.704-54.704h43.994     v28.925c0,13.912,2.059,27.352,5.872,40.039c-38.027,3.998-67.763,36.246-67.763,75.313v64.276     c0,5.807,4.708,10.517,10.517,10.517c5.808,0,10.517-4.709,10.517-10.517v-64.276c0-30.164,24.54-54.704,54.704-54.704     c0.019,0,0.038-0.002,0.058-0.003c22.591,46.538,70.329,78.699,125.44,78.699c54.98,0,102.619-32.01,125.276-78.37     c27.384,2.967,48.774,26.218,48.774,54.377v64.276c0,5.807,4.708,10.517,10.517,10.517c5.808,0,10.517-4.709,10.517-10.517     v-64.276c0-37.024-26.711-67.907-61.87-74.442c3.983-12.943,6.132-26.68,6.132-40.911v-28.925h37.842     c30.164,0,54.704,24.54,54.704,54.704v64.276c0,5.807,4.708,10.517,10.517,10.517c5.808,0,10.517-4.709,10.517-10.517v-64.276     C512,287.622,478.024,253.646,436.263,253.646z M259.076,106.418c31.601,0,61.312,12.307,83.658,34.653     c5.375,5.375,10.211,11.237,14.448,17.506c-62.788,24.912-133.418,24.907-196.207-0.002     C182.861,126.162,219.56,106.418,259.076,106.418z M377.388,263.808c-0.004,0.119-0.018,0.236-0.018,0.355     s0.014,0.237,0.018,0.355v39.086c0,61.692-47.467,112.499-107.795,117.838v-134.31c0-5.807-4.708-10.517-10.517-10.517     s-10.517,4.709-10.517,10.517v134.31c-60.328-5.339-107.795-56.146-107.795-117.838V224.73c0-16.428,3.424-32.686,9.971-47.598     c69.197,28.21,147.486,28.208,216.684,0c6.544,14.916,9.969,31.177,9.969,47.598V263.808z" fill="#FFFFFF"/>
		</g>
	</g>
</g>
<g>
</g>
<g>
</g>
<g>
</g>
<g>
</g>
<g>
</g>
<g>
</g>
<g>
</g>
<g>
</g>
<g>
</g>
<g>
</g>
<g>
</g>
<g>
</g>
<g>
</g>
<g>
</g>
<g>
</g>
</svg>
