<?xml version="1.0" encoding="iso-8859-1"?>
<!-- Generator: Adobe Illustrator 18.0.0, SVG Export Plug-In . SVG Version: 6.00 Build 0)  -->
<!DOCTYPE svg PUBLIC "-//W3C//DTD SVG 1.1//EN" "http://www.w3.org/Graphics/SVG/1.1/DTD/svg11.dtd">
<svg version="1.1" id="Capa_1" xmlns="http://www.w3.org/2000/svg" xmlns:xlink="http://www.w3.org/1999/xlink" x="0px" y="0px"
	 viewBox="0 0 51.906 51.906" style="enable-background:new 0 0 51.906 51.906;" xml:space="preserve">
<g>
	<polygon style="fill:#B27C4F;" points="7.88,49 0.904,46 0.904,0 7.88,0 	"/>
	<path style="fill:#A46F3E;" d="M15.431,34.121c0,0,0-0.069,0-0.104c0-2.371,7.963-4.293,17.785-4.293
		c1.028,0,2.03,0.026,3.01,0.066l2.677-10.04V0H7.911v49h15.578C18.64,45.823,15.431,40.35,15.431,34.121z"/>
	<path style="fill:#F9EA80;" d="M20.904,23.228h-3.658c-2.95,0-5.342-2.392-5.342-5.342v-3.658h3.658
		c2.95,0,5.342,2.392,5.342,5.342V23.228z"/>
	<path style="fill:#F9EA80;" d="M24.904,23.228h3.658c2.95,0,5.342-2.392,5.342-5.342v-3.658h-3.658
		c-2.95,0-5.342,2.392-5.342,5.342V23.228z"/>
	<path style="fill:#F9EA80;" d="M22.897,18.728l2.587-2.587c2.086-2.086,2.086-5.468,0-7.554L22.897,6L20.31,8.587
		c-2.086,2.086-2.086,5.468,0,7.554L22.897,18.728z"/>
	<path style="fill:#EFE7D0;" d="M40.154,30.063L43.904,16c0-0.55-0.45-1-1-1h-2c-0.55,0-1,0.45-1,1l-3.677,13.79
		c-0.98-0.041-1.982-0.066-3.01-0.066c-9.823,0-17.785,1.922-17.785,4.293c0,0.035,0,0.104,0,0.104
		c0,9.823,7.963,17.785,17.785,17.785c9.823,0,17.785-7.963,17.785-17.785c0,0,0-0.069,0-0.104
		C51.002,32.24,46.53,30.716,40.154,30.063z"/>
	<path style="fill:#FFF5BB;" d="M40.154,30.063L43.904,16c0-0.55-0.45-1-1-1h-2c-0.55,0-1,0.45-1,1l-3.677,13.79
		c-0.98-0.041-1.982-0.066-3.01-0.066c-9.823,0-17.785,1.922-17.785,4.293c0,2.371,7.963,4.293,17.785,4.293
		c9.823,0,17.785-1.922,17.785-4.293C51.002,32.24,46.53,30.716,40.154,30.063z"/>
	<path style="fill:#D2D5D7;" d="M40.154,30.063L43.904,16c0-0.55-0.45-1-1-1h-2c-0.55,0-1,0.45-1,1l-3.677,13.79l-0.656,2.502
		L39.446,33L40.154,30.063z"/>
	<path style="fill:#ED8F20;" d="M28.904,35h-2c0-0.552-0.449-1-1-1s-1,0.448-1,1h-2c0-1.654,1.346-3,3-3S28.904,33.346,28.904,35z"
		/>
	<path style="fill:#ED8F20;" d="M36.904,36h-2c0-0.552-0.449-1-1-1s-1,0.448-1,1h-2c0-1.654,1.346-3,3-3S36.904,34.346,36.904,36z"
		/>
</g>
<g>
</g>
<g>
</g>
<g>
</g>
<g>
</g>
<g>
</g>
<g>
</g>
<g>
</g>
<g>
</g>
<g>
</g>
<g>
</g>
<g>
</g>
<g>
</g>
<g>
</g>
<g>
</g>
<g>
</g>
</svg>
