<?xml version="1.0" encoding="iso-8859-1"?>
<!-- Generator: Adobe Illustrator 19.0.0, SVG Export Plug-In . SVG Version: 6.00 Build 0)  -->
<svg version="1.1" id="Layer_1" xmlns="http://www.w3.org/2000/svg" xmlns:xlink="http://www.w3.org/1999/xlink" x="0px" y="0px"
	 viewBox="0 0 511.999 511.999" style="enable-background:new 0 0 511.999 511.999;" xml:space="preserve">
<g>
	<path style="fill:#F18700;" d="M511.532,193.989c-0.252-2.392-0.555-5.587-0.891-7.968c-0.33-2.336-0.91-5.429-1.332-7.751
		c-0.387-2.132-1.034-4.952-1.624-7.036c-1.046-3.698-2.557-8.596-3.825-12.224c-1.716-4.908-5.299-12.714-7.249-16.194
		c-3.744-6.679-3.744-6.679-5.853-9.901c-0.983-1.504-3.286-5.024-6.9-9.589c-6.771-8.557-13.116-14.27-13.506-14.622
		c-3.249-2.926-7.741-6.65-11.199-9.324c-2.322-1.795-5.556-4.013-8.051-5.559c-2.46-1.523-5.717-3.609-8.298-4.917
		c-5.095-2.583-11.994-5.829-17.263-8.038c-2.98-1.25-7.084-2.587-10.171-3.544c-3.054-0.947-7.167-2.087-10.284-2.796
		c-5.348-1.217-12.541-2.699-18.005-3.167c-3.484-0.299-8.121-0.855-11.616-0.961c-5.302-0.161-12.392-0.326-17.682,0.07
		c-3.705,0.277-8.655,0.6-12.334,1.116c-5.244,0.736-12.207,1.947-17.385,3.053c-7.656,1.636-17.615,4.891-24.989,7.521
		c-5.155,1.839-11.907,4.683-16.734,7.26c-3.828,2.044-9.009,4.636-12.737,6.858c-2.816,1.678-8.059,4.8-14.236,9.212
		c-3.869,2.764-8.838,6.71-12.528,9.709c-2.039,1.656-4.637,4.01-6.561,5.8c-1.708,1.59-3.956,3.744-5.596,5.404
		c-1.838,1.86-4.203,4.424-5.997,6.328c-1.798,1.908-4.07,4.572-5.704,6.623c-2.846,3.57-6.495,8.449-9.148,12.165
		c-1.533,2.147-3.427,5.115-4.797,7.37c-1.393,2.293-3.194,5.383-4.49,7.731c-1.086,1.968-2.414,4.653-3.445,6.649
		c-1.271,2.461-2.77,5.841-3.834,8.398c-1.695,4.075-3.709,9.612-5.116,13.796c-0.939,2.795-1.989,6.589-2.698,9.451
		c-0.781,3.156-1.744,7.388-2.273,10.596c-0.483,2.929-0.954,6.54-1.346,9.912c-0.145,1.072-0.269,2.165-0.372,3.277
		c-0.288,1.367-1.029,3.348-1.438,4.296c-1.062,2.462-1.69,3.561-2.83,5.558c-0.228,0.399-1.372,2.289-2.81,4.253
		c-1.216,1.66-1.216,1.66-3.486,4.344c-0.016,0.019-1.737,2.017-4.109,4.251c-1.58,1.488-1.58,1.488-4.669,4.012
		c-0.772,0.632-1.843,1.425-2.67,1.984c-1.492,1.01-3.518,2.304-5.055,3.244l0,0c-1.507,0.921-3.468,2.229-4.896,3.265
		c-0.91,0.66-2.04,1.651-2.891,2.383c-0.112,0.096-2.762,2.387-5.417,5.706c-4.949,6.187-7.225,11.975-8.507,15.789
		c-0.565,1.683-1.127,3.988-1.527,5.719c-0.255,1.109-0.483,2.61-0.65,3.734c-0.103,0.701-0.619,4.432-0.558,9.021
		c0.063,4.801,0.672,8.568,0.698,8.726c0.735,4.485,1.019,5.947,2.538,11.016c0.319,1.063,0.788,2.469,1.194,3.501
		c0.796,2.02,1.883,4.707,2.813,6.669c0.463,0.976,1.093,2.274,1.622,3.216c0.529,0.943,1.213,2.21,1.763,3.14
		c0.549,0.929,1.326,2.139,1.898,3.054c1.009,1.615,1.253,1.938,4.241,5.898c0.655,0.868,1.619,1.956,2.315,2.792
		c1.668,2,4.234,4.475,5.2,5.407c2.77,2.672,6.626,5.494,6.661,5.519c0.938,0.667,2.189,1.561,3.169,2.165
		c1.533,0.945,3.59,2.19,5.202,2.995c2.068,1.031,4.866,2.358,7.067,3.063c1.091,0.349,2.526,0.883,3.638,1.156
		c2.096,0.514,4.913,1.116,7.044,1.462c1.843,0.3,4.341,0.503,6.207,0.463c1.115-0.024,2.605,0,3.717-0.094
		c1.728-0.146,4.034-0.378,5.738-0.707c1.096-0.212,2.556-0.514,3.63-0.817c1.476-0.417,3.424-1.048,4.862-1.58
		c2.121-0.785,4.799-2.204,6.798-3.261c18.08-10.441,34.717-9.629,41.119-7.717c2.777,1.249,6.183,2.714,8.848,3.749
		c2.725,1.059,6.404,2.357,9.202,3.203c4.212,1.272,9.904,2.718,14.191,3.706c2.664,0.614,6.271,1.173,8.967,1.633
		c4.19,0.716,12.637,1.549,16.183,1.662c2.608,0.084,6.087,0.283,8.696,0.242c4.52-0.072,10.546-0.31,15.056-0.62
		c2.581-0.177,6.008-0.591,8.571-0.933c2.561-0.341,5.974-0.833,8.505-1.342c4.54-0.913,10.564-2.277,15.056-3.403
		c2.524-0.633,5.84-1.667,8.319-2.459c2.491-0.795,5.802-1.895,8.236-2.854c4.428-1.744,10.276-4.213,14.623-6.149
		c2.431-1.084,5.583-2.72,7.94-3.956c2.146-1.125,4.967-2.705,7.068-3.914c4.805-2.767,10.975-6.865,15.525-10.035
		c3.289-2.29,7.409-5.706,10.585-8.151c4.347-3.348,9.585-8.493,13.511-12.326c4.054-3.958,9.127-9.591,12.613-14.058
		c4.567-5.854,10.324-13.938,14.182-20.281c3.035-4.991,6.692-11.898,9.04-17.246c1.383-3.15,3.166-7.38,4.362-10.606
		c1.185-3.196,2.649-7.507,3.568-10.79c1.696-6.053,3.623-14.241,4.488-20.466c0.576-4.14,1.1-9.692,1.383-13.863
		c0.143-2.113,0.143-4.768,0.16-7.141l0,0c0-0.001,0-0.002,0-0.002s0,0.001,0,0.002c0.02-0.698,0.033-1.396,0.025-2.091
		C511.945,200.873,511.841,196.927,511.532,193.989z"/>
	<path style="fill:#F18700;" d="M453.072,281.658c-36.725,21.342-82.884,33.241-126.763,34.947
		c-34.39,1.341-66.976,9.631-91.247,23.736c0.179,14.599-4.849,24.903-13.09,29.692c18.08-10.441,34.717-9.629,41.119-7.717
		c2.777,1.249,6.183,2.714,8.848,3.749c2.725,1.058,6.404,2.357,9.202,3.203c4.212,1.272,9.904,2.718,14.191,3.706
		c2.664,0.614,6.271,1.173,8.967,1.633c4.19,0.716,12.637,1.549,16.183,1.662c2.608,0.084,6.087,0.283,8.696,0.242
		c4.52-0.072,10.546-0.31,15.056-0.62c2.581-0.177,6.008-0.591,8.571-0.933c2.561-0.341,5.974-0.833,8.505-1.342
		c4.54-0.913,10.564-2.277,15.056-3.403c2.524-0.633,5.84-1.667,8.319-2.459c2.491-0.795,5.802-1.895,8.236-2.854
		c4.428-1.744,10.276-4.213,14.623-6.149c2.431-1.084,5.583-2.72,7.94-3.956c2.146-1.125,4.967-2.705,7.068-3.914
		c4.805-2.767,10.975-6.865,15.525-10.035c3.289-2.29,7.409-5.706,10.585-8.151c4.347-3.348,9.585-8.493,13.51-12.326
		c4.054-3.958,9.127-9.591,12.613-14.058c4.567-5.854,10.324-13.938,14.182-20.281c3.035-4.991,6.692-11.898,9.04-17.246
		c1.383-3.15,3.166-7.38,4.362-10.606c1.185-3.196,2.649-7.507,3.568-10.79c1.696-6.053,3.623-14.241,4.488-20.466
		c0.576-4.14,1.1-9.692,1.383-13.863c0.143-2.113,0.143-4.768,0.16-7.141C511.242,231.755,491.215,259.492,453.072,281.658z
		 M262.094,361.867c0.219,0.099,0.453,0.205,0.682,0.309C262.636,362.113,262.434,362.021,262.094,361.867z"/>
	<path style="fill:#F18700;" d="M511.972,205.918c0.02-0.698,0.033-1.396,0.025-2.091
		C511.983,204.479,511.977,205.186,511.972,205.918z"/>
</g>
<g>
	<path style="fill:#FF9911;" d="M189.549,263.318c-12.188-6.792-23.173-7.32-31.147-2.685c-1.507,0.921-3.468,2.229-4.896,3.265
		c-0.91,0.66-2.04,1.651-2.891,2.383c-0.112,0.096-2.762,2.387-5.417,5.706c-4.949,6.187-7.225,11.975-8.507,15.789
		c-0.565,1.683-1.127,3.988-1.527,5.719c-0.255,1.109-0.483,2.61-0.65,3.734c-0.103,0.701-0.619,4.432-0.558,9.021
		c0.063,4.801,0.672,8.568,0.698,8.726c0.735,4.485,1.019,5.947,2.538,11.016c0.319,1.063,0.788,2.469,1.194,3.501
		c0.796,2.02,1.883,4.707,2.813,6.669c0.463,0.976,1.093,2.274,1.622,3.216s1.213,2.21,1.763,3.14
		c0.549,0.929,1.326,2.139,1.898,3.054c1.009,1.615,1.253,1.938,4.241,5.898c0.655,0.868,1.619,1.956,2.315,2.792
		c1.668,2,4.234,4.475,5.2,5.407c2.77,2.672,6.626,5.494,6.661,5.519c0.938,0.667,2.189,1.561,3.169,2.165
		c1.533,0.945,3.59,2.19,5.201,2.995c2.068,1.031,4.866,2.358,7.067,3.063c1.091,0.349,2.526,0.883,3.638,1.156
		c2.096,0.514,4.913,1.116,7.044,1.462c1.843,0.3,4.34,0.503,6.207,0.463c1.115-0.024,2.605,0,3.717-0.094
		c1.728-0.146,4.034-0.378,5.738-0.707c1.096-0.212,2.556-0.514,3.63-0.817c1.476-0.417,3.424-1.048,4.862-1.58
		c2.121-0.785,4.799-2.204,6.798-3.261c8.242-4.79,13.269-15.093,13.09-29.692C234.709,311.613,214.333,277.129,189.549,263.318z
		 M162.887,351.224c-9.475-5.28-17.265-18.463-17.4-29.445c-0.135-10.982,7.438-15.604,16.912-10.325
		c9.475,5.28,17.265,18.463,17.4,29.445C179.934,351.882,172.362,356.504,162.887,351.224z"/>
	<path style="fill:#FF9911;" d="M511.532,193.989c-0.252-2.392-0.555-5.587-0.891-7.968c-0.33-2.336-0.91-5.429-1.332-7.751
		c-0.387-2.132-1.034-4.952-1.624-7.036c-1.046-3.698-2.557-8.596-3.825-12.224c-1.716-4.908-5.299-12.714-7.249-16.194
		c-3.744-6.679-3.744-6.679-5.853-9.901c-0.983-1.504-3.286-5.024-6.9-9.589c-6.771-8.557-13.116-14.27-13.506-14.622
		c-3.249-2.926-7.741-6.65-11.199-9.324c-2.322-1.795-5.556-4.013-8.051-5.559c-2.46-1.523-5.717-3.609-8.298-4.917
		c-5.095-2.583-11.994-5.829-17.263-8.038c-2.98-1.25-7.084-2.587-10.171-3.544c-3.054-0.947-7.167-2.087-10.284-2.796
		c-5.348-1.217-12.541-2.699-18.005-3.167c-3.484-0.299-8.121-0.855-11.616-0.961c-5.302-0.161-12.392-0.326-17.682,0.07
		c-3.705,0.277-8.655,0.6-12.334,1.116c-5.244,0.736-12.207,1.947-17.385,3.053c-7.656,1.636-17.615,4.891-24.989,7.521
		c-5.155,1.839-11.907,4.683-16.734,7.26c-3.828,2.044-9.009,4.636-12.737,6.858c-2.816,1.678-8.059,4.8-14.236,9.212
		c-3.869,2.764-8.838,6.71-12.528,9.709c-2.039,1.656-4.637,4.01-6.561,5.8c-1.708,1.59-3.956,3.744-5.596,5.404
		c-1.838,1.86-4.203,4.424-5.997,6.328c-1.798,1.908-4.07,4.572-5.704,6.623c-2.846,3.57-6.495,8.449-9.148,12.165
		c-1.533,2.147-3.427,5.115-4.797,7.37c-1.393,2.293-3.194,5.383-4.49,7.731c-1.086,1.968-2.414,4.653-3.445,6.649
		c-1.271,2.461-2.77,5.841-3.834,8.398c-1.695,4.075-3.709,9.612-5.116,13.796c-0.939,2.795-1.989,6.589-2.698,9.451
		c-0.781,3.156-1.744,7.388-2.273,10.596c-0.483,2.929-0.954,6.54-1.346,9.912c-0.145,1.072-0.269,2.165-0.372,3.277
		c-0.288,1.367-1.029,3.348-1.438,4.296c-1.062,2.462-1.69,3.561-2.83,5.558c-0.228,0.399-1.372,2.289-2.81,4.253
		c-1.216,1.66-1.216,1.66-3.486,4.344c-0.016,0.019-1.737,2.017-4.109,4.251c-1.58,1.488-1.58,1.488-4.669,4.012
		c-0.772,0.632-1.843,1.425-2.67,1.984c-1.492,1.01-3.518,2.305-5.056,3.244c7.975-4.634,18.96-4.107,31.147,2.685
		c24.784,13.811,45.16,48.295,45.513,77.022c24.271-14.105,56.857-22.395,91.247-23.736c43.878-1.705,90.038-13.604,126.763-34.947
		c39.174-22.765,59.248-51.408,58.925-77.832C511.945,200.873,511.841,196.927,511.532,193.989z M185.447,228.878
		c-0.028,0.312-0.069,0.614-0.093,0.93C185.395,229.314,185.42,229.083,185.447,228.878z"/>
</g>
<path style="fill:#FEC377;" d="M163.883,312.169c-4.452-2.57-8.488-2.809-11.401-1.116L41.235,375.912
	c0.009-0.005,0.02-0.008,0.028-0.014c-2.893,1.666-4.689,5.226-4.704,10.294c-0.029,10.169,7.122,22.555,15.972,27.665
	c4.732,2.732,8.98,2.809,11.923,0.753c-0.173,0.121-0.339,0.257-0.521,0.364l111.247-64.859c2.877-1.672,4.66-5.227,4.674-10.279
	C179.883,329.668,172.733,317.279,163.883,312.169z"/>
<path style="fill:#FEDAAA;" d="M41.235,375.912l111.247-64.859c2.913-1.693,6.948-1.454,11.401,1.116L52.636,377.028
	C48.183,374.458,44.149,374.219,41.235,375.912z"/>
<path style="fill:#FEC377;" d="M175.18,350.116L63.933,414.975c2.877-1.672,4.66-5.227,4.674-10.279
	c0.029-10.17-7.122-22.558-15.972-27.668l111.247-64.859c8.85,5.11,16.001,17.499,15.972,27.668
	C179.841,344.889,178.057,348.444,175.18,350.116z"/>
<path style="fill:#FEDAAA;" d="M52.636,377.028c8.85,5.11,16.001,17.499,15.972,27.668c-0.029,10.17-7.227,14.271-16.077,9.162
	c-8.85-5.11-16.001-17.496-15.972-27.665C36.588,376.024,43.785,371.918,52.636,377.028z"/>
<circle style="fill:#FEC377;" cx="31.722" cy="387.634" r="31.722"/>
<path style="fill:#FEDAAA;" d="M4.837,391.021c0-17.52,14.202-31.722,31.722-31.722c5.701,0,11.047,1.512,15.669,4.144
	c-5.531-4.693-12.686-7.528-20.507-7.528C14.202,355.916,0,370.118,0,387.638c0,11.819,6.468,22.119,16.053,27.578
	C9.194,409.397,4.837,400.72,4.837,391.021z"/>
<circle style="fill:#FEC377;" cx="70.837" cy="410.057" r="31.722"/>
<path style="fill:#FEDAAA;" d="M42.838,412.422c0-17.52,14.202-31.722,31.722-31.722c5.461,0,10.597,1.38,15.084,3.81
	c-5.263-3.882-11.766-6.178-18.806-6.178c-17.52,0-31.722,14.202-31.722,31.722c0,12.059,6.73,22.547,16.638,27.912
	C47.921,432.189,42.838,422.901,42.838,412.422z"/>
<ellipse transform="matrix(-0.2053 -0.9787 0.9787 -0.2053 290.2177 486.5182)" style="fill:#FFA834;" cx="342.634" cy="125.431" rx="40.887" ry="68.712"/>
<g>
</g>
<g>
</g>
<g>
</g>
<g>
</g>
<g>
</g>
<g>
</g>
<g>
</g>
<g>
</g>
<g>
</g>
<g>
</g>
<g>
</g>
<g>
</g>
<g>
</g>
<g>
</g>
<g>
</g>
</svg>
