<?xml version="1.0" encoding="iso-8859-1"?>
<!-- Generator: Adobe Illustrator 19.0.0, SVG Export Plug-In . SVG Version: 6.00 Build 0)  -->
<svg version="1.1" id="Layer_1" xmlns="http://www.w3.org/2000/svg" xmlns:xlink="http://www.w3.org/1999/xlink" x="0px" y="0px"
	 viewBox="0 0 512 512" style="enable-background:new 0 0 512 512;" xml:space="preserve">
<g>
	<path style="fill:#a5c0cd;" d="M102.374,479.485C45.926,479.485,0,433.56,0,377.11c0-56.448,45.926-102.374,102.374-102.374
		c36.125,0,69.958,19.362,88.293,50.532c4.075,6.929,1.762,15.849-5.165,19.923c-6.929,4.077-15.848,1.762-19.923-5.165
		c-13.129-22.318-37.348-36.182-63.206-36.182c-40.4,0-73.267,32.867-73.267,73.267s32.867,73.268,73.267,73.268
		c25.404,0,48.634-12.873,62.142-34.431c4.269-6.813,13.25-8.873,20.059-4.608c6.811,4.269,8.873,13.25,4.606,20.059
		C170.318,461.509,137.866,479.485,102.374,479.485z"/>
	<path style="fill:#a5c0cd;" d="M497.446,359.756H254.324c-8.038,0-14.554-6.517-14.554-14.554s6.516-14.554,14.554-14.554h243.122
		c8.037,0,14.554,6.517,14.554,14.554S505.483,359.756,497.446,359.756z"/>
	<path style="fill:#a5c0cd;" d="M406.276,423.573H254.324c-8.038,0-14.554-6.517-14.554-14.554s6.516-14.554,14.554-14.554h151.951
		c8.037,0,14.554,6.517,14.554,14.554S414.314,423.573,406.276,423.573z"/>
</g>
<circle style="fill:transparent;" cx="102.371" cy="134.884" r="87.817"/>
<g>
	<path style="fill:#a5c0cd;" d="M102.374,237.263C45.924,237.263,0,191.338,0,134.89C0,78.44,45.924,32.515,102.374,32.515
		S204.748,78.44,204.748,134.89C204.75,191.338,158.824,237.263,102.374,237.263z M102.374,61.622
		c-40.4,0-73.267,32.868-73.267,73.268s32.867,73.267,73.267,73.267s73.267-32.867,73.267-73.267S142.774,61.622,102.374,61.622z"/>
	<path style="fill:#a5c0cd;" d="M497.446,117.535H254.324c-8.038,0-14.554-6.517-14.554-14.554s6.516-14.554,14.554-14.554h243.122
		c8.037,0,14.554,6.517,14.554,14.554S505.483,117.535,497.446,117.535z"/>
	<path style="fill:#a5c0cd;" d="M406.276,181.35H254.324c-8.038,0-14.554-6.517-14.554-14.554s6.516-14.554,14.554-14.554h151.951
		c8.037,0,14.554,6.517,14.554,14.554S414.314,181.35,406.276,181.35z"/>
</g>
<g>
</g>
<g>
</g>
<g>
</g>
<g>
</g>
<g>
</g>
<g>
</g>
<g>
</g>
<g>
</g>
<g>
</g>
<g>
</g>
<g>
</g>
<g>
</g>
<g>
</g>
<g>
</g>
<g>
</g>
</svg>
