<?xml version="1.0" encoding="utf-8"?>
<!-- Generator: Adobe Illustrator 21.1.0, SVG Export Plug-In . SVG Version: 6.00 Build 0)  -->
<svg version="1.1" id="레이어_1" xmlns="http://www.w3.org/2000/svg" xmlns:xlink="http://www.w3.org/1999/xlink" x="0px"
	 y="0px" viewBox="0 0 500 500" style="enable-background:new 0 0 500 500;" xml:space="preserve">
<style type="text/css">
	.st0{fill:#FFFFFF;}
	.st1{fill:none;stroke:#FFFFFF;stroke-width:10;stroke-miterlimit:10;}
	.st2{font-family:'TwCenMT-Regular';}
	.st3{font-size:60px;}
</style>
<path class="st0" d="M350,304c-3.3,0-6,2.6-6,5.9v105.3h-64.7v-66.1c0-3.3-2.7-5.9-6-5.9H226c-3.3,0-6,2.6-6,5.9v52.4
	c0,3.3,2.7,5.9,6,5.9s6-2.6,6-5.9V355h35.2v60.2H155.3V270.6l94.3-74.1l96.6,75.9c2.6,2,6.4,1.6,8.5-0.9s1.7-6.3-0.9-8.3
	l-100.4-78.8c-2.2-1.7-5.3-1.7-7.5,0l-100.4,78.8c-1.4,1.1-2.3,2.8-2.3,4.6v153.4c0,3.3,2.7,5.9,6,5.9H350c3.3,0,6-2.6,6-5.9V309.9
	C356,306.7,353.3,304,350,304z"/>
<circle class="st1" cx="250" cy="250" r="245"/>
<text transform="matrix(1 0 0 1 212.1422 157)" class="st0 st2 st3">Sat</text>
</svg>
