<?xml version="1.0" encoding="utf-8"?>
<!-- Generator: Adobe Illustrator 21.1.0, SVG Export Plug-In . SVG Version: 6.00 Build 0)  -->
<svg version="1.1" id="레이어_1" xmlns="http://www.w3.org/2000/svg" xmlns:xlink="http://www.w3.org/1999/xlink" x="0px"
	 y="0px" viewBox="0 0 500 500" style="enable-background:new 0 0 500 500;" xml:space="preserve">
<style type="text/css">
	.st0{fill:#FFFFFF;}
	.st1{fill:none;stroke:#FFFFFF;stroke-width:10;stroke-miterlimit:10;}
</style>
<path class="st0" d="M350,304c-3.3,0-6,2.6-6,5.9v105.3h-64.7v-66.1c0-3.3-2.7-5.9-6-5.9H226c-3.3,0-6,2.6-6,5.9v52.4
	c0,3.3,2.7,5.9,6,5.9s6-2.6,6-5.9V355h35.2v60.2H155.3V270.6l94.3-74.1l96.6,75.9c2.6,2,6.4,1.6,8.5-0.9s1.7-6.3-0.9-8.3
	l-100.4-78.8c-2.2-1.7-5.3-1.7-7.5,0l-100.4,78.8c-1.4,1.1-2.3,2.8-2.3,4.6v153.4c0,3.3,2.7,5.9,6,5.9H350c3.3,0,6-2.6,6-5.9V309.9
	C356,306.7,353.3,304,350,304z"/>
<circle class="st1" cx="250" cy="250" r="245"/>
<path class="st0" d="M249.4,153.5c-1.8,0-3.3,1.2-3.3,2.7v5.4c0,1.5,1.5,2.7,3.3,2.7s3.3-1.2,3.3-2.7v-5.4
	C252.7,154.7,251.3,153.5,249.4,153.5z"/>
<path class="st0" d="M249.8,78c-0.1,0-0.3,0-0.4,0c-7,0-13.6,2.2-18.6,6.2c-5.1,4.1-7.9,9.5-7.9,15.4c0,1.5,1.5,2.7,3.3,2.7
	c1.8,0,3.3-1.2,3.3-2.7c0-4.4,2.1-8.5,5.9-11.5c3.8-3.1,8.9-4.8,14.3-4.7c10.5,0.1,19.5,7.4,19.6,15.9c0.1,5.6-3.3,10.8-9.1,13.8
	c-8.8,4.6-14.1,12.8-14.1,21.9v7.7c0,1.5,1.5,2.7,3.3,2.7s3.3-1.2,3.3-2.7V135c0-7.1,4.2-13.8,11.1-17.3c7.8-4.1,12.3-11,12.2-18.4
	C275.8,87.7,264,78.2,249.8,78z"/>
</svg>
