<?xml version="1.0" encoding="utf-8"?>
<!-- Generator: Adobe Illustrator 21.1.0, SVG Export Plug-In . SVG Version: 6.00 Build 0)  -->
<svg version="1.1" id="sunday-content" xmlns:cc="http://creativecommons.org/ns#" xmlns:dc="http://purl.org/dc/elements/1.1/" xmlns:inkscape="http://www.inkscape.org/namespaces/inkscape" xmlns:rdf="http://www.w3.org/1999/02/22-rdf-syntax-ns#" xmlns:se="http://svg-edit.googlecode.com"
                    xmlns="http://www.w3.org/2000/svg" xmlns:xlink="http://www.w3.org/1999/xlink" x="0px" y="0px" viewBox="0 0 200 200" style="enable-background:new 0 0 200 200;" xml:space="preserve">
                    <style type="text/css">
                        .st0 {
                            fill: transparent;
                        }
                    </style>
                    <rect id="backgroundrect" class="st0" width="166" height="97" />
                    <path id="letter-n" d="M115,25.2c2.8,6.8-3.4,46.4-3.4,46.4s4.1-31,9.4-39.3c5.3-8.3,13.4-1.5,15,9s-4.6,28.8-1,36" />
                    <path id="letter-s2" d="M55.6,33.6c0,0,0-0.9-0.6-2.1s-1.4-2-2.6-3c-1.2-1-2.9-2.3-5.3-2.9C44.7,25,41.8,25,39,25.8
                    c-2.9,0.8-5.3,2.1-7.1,3.7c-1.9,1.6-2.7,3.2-2.9,5.1c-0.2,1.8,1.4,4.2,4.3,7.3c2.8,3,6.5,5.9,10.5,9.3c4.1,3.5,6.5,7.1,7.4,10.2
                    c0.8,3-0.4,5.9-3.5,8.3c-3,2.5-6.7,3.3-10,3.5c-3.2,0.2-6,0.2-8.1-0.2c-2-0.4-3.2-1.2-3.4-1.6" />
                    <path id="letter-u" d="M69.9,22.3C75.2,20,72.8,32,70,46.9c-2.8,14.8-0.8,28.5,8,27.4c5.6-0.8,10.5-6.9,13-16.1
                    c3.2-12,4.3-29.5,4.3-29.6c0-0.2,0-0.2,0,1.6c0,1.9,0,1.9-0.4,10.6c-0.4,8.7-3.1,30.4,4.1,35.6" />
                    </svg>
