<?xml version="1.0" encoding="iso-8859-1"?>
<!-- Generator: Adobe Illustrator 19.0.0, SVG Export Plug-In . SVG Version: 6.00 Build 0)  -->
<svg xmlns="http://www.w3.org/2000/svg" xmlns:xlink="http://www.w3.org/1999/xlink" version="1.1" id="Capa_1" x="0px" y="0px" viewBox="0 0 384.97 384.97" style="enable-background:new 0 0 384.97 384.97;" xml:space="preserve" width="512px" height="512px">
<g>
	<g id="Sign_In">
		<path d="M372.939,0H204.515c-6.641,0-12.03,5.39-12.03,12.03s5.39,12.03,12.03,12.03h156.394v336.848H204.515    c-6.641,0-12.03,5.39-12.03,12.03s5.39,12.03,12.03,12.03h168.424c6.641,0,12.03-5.39,12.03-12.03V12.03    C384.97,5.39,379.58,0,372.939,0z" fill="#FFFFFF"/>
		<path d="M197.213,268.276c-4.704,4.752-4.704,12.439,0,17.179c4.704,4.752,12.319,4.752,17.011,0l82.997-84.2    c4.632-4.68,4.68-12.512,0-17.191l-83.009-84.2c-4.704-4.752-12.319-4.74-17.011,0c-4.704,4.74-4.704,12.439,0,17.179    l62.558,63.46H12.03C5.39,180.503,0,185.94,0,192.653c0,6.713,5.39,12.151,12.03,12.151h247.74L197.213,268.276z" fill="#FFFFFF"/>
	</g>
	<g>
	</g>
	<g>
	</g>
	<g>
	</g>
	<g>
	</g>
	<g>
	</g>
	<g>
	</g>
</g>
<g>
</g>
<g>
</g>
<g>
</g>
<g>
</g>
<g>
</g>
<g>
</g>
<g>
</g>
<g>
</g>
<g>
</g>
<g>
</g>
<g>
</g>
<g>
</g>
<g>
</g>
<g>
</g>
<g>
</g>
</svg>
