<?xml version="1.0" encoding="utf-8"?>
<!-- Generator: Adobe Illustrator 21.1.0, SVG Export Plug-In . SVG Version: 6.00 Build 0)  -->
<svg version="1.1" id="saturday-content" xmlns:cc="http://creativecommons.org/ns#" xmlns:dc="http://purl.org/dc/elements/1.1/" xmlns:inkscape="http://www.inkscape.org/namespaces/inkscape" xmlns:rdf="http://www.w3.org/1999/02/22-rdf-syntax-ns#" xmlns:se="http://svg-edit.googlecode.com"
                    xmlns="http://www.w3.org/2000/svg" xmlns:xlink="http://www.w3.org/1999/xlink" x="0px" y="0px" viewBox="0 0 200 200" style="enable-background:new 0 0 200 200;" xml:space="preserve">
                    <style type="text/css">
                        .st0 {
                            fill: transparent;
                        }
                    </style>
                    <rect id="backgroundrect" class="st0" width="251" height="128" />
                    <path id="letter-a" d="M135.7,46c0.2-2.4,3.5-14.8-5-17s-19.9,30.9-21.6,37.2c-1.6,6.3-7.1,23.1,4.6,25.8s21.5-48,21.5-48
                        s1.2-1.3-1.9,10.2c-3,11.5-3.8,14.5-2.6,25.8s5.9,13,15,10s15.1-15.1,15.1-15.1" />
                    <path id="letter-s" d="M95.1,40c0,0,0-1.2-0.8-2.8s-1.8-2.6-3.3-3.9c-1.5-1.3-3.7-3-6.7-3.8c-3-0.8-6.7-0.8-10.2,0.3
                        c-3.7,1.1-6.7,2.8-9,4.9c-2.4,2.1-3.4,4.2-3.7,6.7c-0.3,2.4,1.8,5.5,5.4,9.6c3.5,3.9,8.2,7.7,13.2,12.2c5.2,4.6,8.2,9.3,9.3,13.4
                        c1,3.9-0.5,7.7-4.4,10.9c-3.8,3.3-8.5,4.3-12.6,4.6c-4,0.3-7.6,0.3-10.2-0.3c-2.5-0.5-4-1.6-4.3-2.1" />
                    <path id="letter-t" d="M181.9,16.4c0,0,0,0-0.2,0.4c-0.2,0.4-0.2,2.4-0.6,6.3c-0.4,3.8-4.1,31.9-5.1,39s-5.3,19.1,0.5,26.3
                        c5.8,7.3,14.7,4.4,16.8,3.4c2-1.1,2.8-2.3,2.8-3.9c0-1.6-2-3.3-2-3.3" />
                    <path id="letter-t2" d="M165.8,54.4c0,0,0,0,1.2,0.2c1.2,0.2,3.7,0.2,7.1,0.2c3.5,0,7.1,0,10.2-0.4c3-0.4,5.3-0.5,8.1-1.7" />
                    </svg>
