<?xml version="1.0" encoding="iso-8859-1"?>
<!-- Generator: Adobe Illustrator 19.0.0, SVG Export Plug-In . SVG Version: 6.00 Build 0)  -->
<svg version="1.1" id="Layer_1" xmlns="http://www.w3.org/2000/svg" xmlns:xlink="http://www.w3.org/1999/xlink" x="0px" y="0px"
	 viewBox="0 0 512 512" style="enable-background:new 0 0 512 512;" xml:space="preserve">
<g>
	<path style="fill:#C6C5CB;" d="M348.024,394.183c0.58-14.122-8.448-28.366-27.116-39.144
		c-36.064-20.822-94.343-20.817-130.172,0.006c-17.853,10.375-26.759,23.965-26.74,37.566c0-0.043-0.005-0.087-0.005-0.13
		l-0.066,23.086c-0.039,13.731,9.023,27.483,27.17,37.961c36.064,20.822,94.343,20.817,130.163-0.001
		c17.802-10.346,26.715-23.885,26.753-37.442l0.066-23.086C348.075,393.392,348.04,393.787,348.024,394.183z"/>
	<path style="fill:#C6C5CB;" d="M348.076,392.997l-0.066,23.086c-0.039,13.559-8.951,27.098-26.753,37.442
		c-35.821,20.817-94.099,20.823-130.163,0.001c-18.147-10.477-27.208-24.229-27.17-37.961l0.066-23.086
		c-0.039,13.731,9.023,27.483,27.17,37.961c36.064,20.822,94.342,20.817,130.163-0.001
		C339.125,420.094,348.037,406.555,348.076,392.997z"/>
</g>
<g>
	<path style="fill:#E0E0E2;" d="M320.907,355.039c36.064,20.822,36.245,54.579,0.415,75.401
		c-35.821,20.817-94.099,20.822-130.163,0.001c-36.064-20.822-36.246-54.579-0.424-75.396
		C226.565,334.222,284.843,334.217,320.907,355.039z"/>
	<path style="fill:#E0E0E2;" d="M511.977,192.776c0.508-37.629-23.547-75.433-72.407-104.642
		c-98.546-58.91-260.62-60.547-362.002-3.658C25.707,113.577-0.213,152.356,0.016,191.181c-0.005-0.248-0.011-0.512-0.016-0.753
		c-0.001,0.286,0.013,0.572,0.015,0.858c0.004,0.573,0.015,1.144,0.03,1.717c0.013,0.471,0.024,0.943,0.044,1.414
		c-0.006-0.247-0.014-0.495-0.019-0.739c0.014,0.379,0.024,0.759,0.042,1.138c-0.006-0.133-0.017-0.265-0.023-0.399
		c0.155,5.925,0.436,12.734,0.786,18.099c0.258,3.96,0.884,9.22,1.422,13.152c0.54,3.945,1.295,9.206,2.103,13.104
		c1.417,6.833,3.503,15.907,5.312,22.646c1.047,3.899,2.701,9.025,4.006,12.845c1.322,3.87,3.141,9.018,4.745,12.779
		c2.75,6.45,6.621,14.967,9.71,21.262c1.871,3.813,4.698,8.726,6.817,12.407c2.186,3.798,5.253,8.782,7.749,12.384
		c4.066,5.865,9.728,13.519,14.107,19.153c2.906,3.738,7.14,8.432,10.32,11.94c2.422,2.672,5.783,6.115,8.345,8.653
		c3.699,3.663,8.839,8.337,12.746,11.779c2.752,2.425,6.525,5.544,9.444,7.768c4.809,3.664,11.327,8.418,16.337,11.801
		c4.097,2.766,9.739,6.186,14.003,8.685c5.468,3.204,13.027,7.001,18.708,9.81c3.304,1.633,7.833,3.555,11.228,4.989
		c4.568,1.931,10.778,4.221,15.463,5.85c3.902,1.356,9.156,3.027,13.145,4.098c6.861,1.843,16.107,3.921,23.063,5.364
		c3.576,0.742,8.404,1.416,12.022,1.916c3.423,0.473,8,1.052,11.447,1.285c6.815,0.46,15.916,0.988,22.747,1.023
		c3.428,0.017,8.001-0.097,11.426-0.248s7.982-0.525,11.403-0.755c3.612-0.245,8.396-0.928,11.991-1.35
		c6.256-0.735,19.353-3.215,24.803-4.648c4.704-1.236,11.015-2.765,15.64-4.274c7.046-2.299,16.334-5.693,23.23-8.406
		c4.938-1.944,11.311-5.046,16.079-7.377c3.456-1.69,7.961-4.145,11.32-6.022c5.4-3.018,16.3-9.462,28.624-18.721
		c4.181-3.141,9.6-7.54,13.563-10.952c3.67-3.159,8.476-7.484,11.867-10.939c5.085-5.183,11.667-12.289,16.444-17.758
		c2.923-3.347,6.536-8.051,9.2-11.606c2.582-3.445,5.944-8.106,8.255-11.74c3.797-5.972,8.688-14.049,12.089-20.256
		c1.977-3.608,4.4-8.535,6.144-12.261c1.722-3.677,3.953-8.616,5.405-12.408c2.502-6.529,5.588-15.332,7.737-21.985
		c1.223-3.786,2.546-8.929,3.494-12.792c3.372-13.74,4.734-24.284,4.746-24.384c0.479-3.926,1.267-9.146,1.557-13.09
		c0.256-3.496,0.654-8.156,0.821-11.657c0.168-3.515,0.297-8.208,0.297-11.727C511.999,192.163,511.982,192.469,511.977,192.776z"/>
</g>
<path style="fill:#C6C5CB;" d="M140.368,384.562c-7.606-4.683-17.391-11.511-24.503-16.916c-4.959-3.769-11.298-9.185-15.672-13.62
	c-6.769-6.865-15.656-16.201-21.614-23.779c-5.955-7.575-13.252-18.216-17.996-26.602c-4.215-7.449-9.466-17.628-12.655-25.57
	c-3.892-9.694-8.212-22.977-10.892-33.074c-2.131-8.024-3.943-18.987-4.925-27.231c-0.968-8.133-1.417-19.068-1.561-27.257
	c0.096-33.97,22.935-67.845,68.311-93.307l0,0c89.285-50.1,232.017-48.658,318.802,3.221c42.679,25.514,63.88,58.473,63.787,91.344
	l0,0c-0.23,5.416-0.113,12.672-0.768,18.052c-1.29,10.595-2.946,24.808-5.708,35.119c-2.102,7.848-4.997,18.327-8.019,25.868
	c-1.922,4.795-4.488,11.193-6.695,15.863c-2.425,5.131-5.858,11.888-8.734,16.78c-5.04,8.57-12.494,19.583-18.603,27.428
	c-5.442,6.987-13.504,15.667-19.805,21.891c-5.185,5.121-12.483,11.59-18.327,15.943c-3.556,2.649-8.255,6.245-11.947,8.7
	c-4.87,3.237-11.486,7.379-16.578,10.257c-7.001,3.957-16.677,8.65-24.109,11.72c-4.039,1.668-9.496,3.717-13.626,5.142
	c-3.646,1.258-8.547,2.839-12.283,3.796c-3.229,0.828-7.507,2.051-10.774,2.706c-3.192,0.639-7.434,1.565-10.64,2.125
	c-3.196,0.559-7.478,1.183-10.696,1.604c-3.088,0.404-7.218,0.877-10.328,1.055c-3.016,0.173-7.033,0.465-10.052,0.568
	c-3.008,0.103-7.023,0.163-10.032,0.121c-6.039-0.083-14.079-0.631-20.1-1.098c-3.093-0.24-7.197-0.795-10.264-1.259
	c-3.155-0.478-7.353-1.172-10.485-1.785c-3.223-0.63-7.484-1.644-10.689-2.354c-3.285-0.728-7.583-2.038-10.822-2.95
	c-5.7-1.606-16.873-5.563-24.42-8.893c-3.643-1.607-8.482-3.797-12.025-5.612C150.486,390.287,144.61,387.174,140.368,384.562z"/>
<path style="fill:#FFB657;" d="M104.948,141.694c-85.826,48.16-87.774,127.629-4.35,177.499s220.628,51.257,306.454,3.097
	s87.774-127.629,4.35-177.499S190.774,93.534,104.948,141.694"/>
<path style="fill:#8FCC05;" d="M308.304,207.087c-3.917-2.261-45.28,1.027-63.974,11.891s-12.65,21.301-2.864,26.95
	c9.788,5.651,27.825,9.118,46.519-1.746C306.68,233.318,311.654,209.021,308.304,207.087"/>
<g>
	<polyline style="fill:#9CDD03;" points="283.757,212.75 281.709,222.457 284.183,221.019 283.757,212.75 	"/>
	<polyline style="fill:#9CDD03;" points="268.567,217.926 269.673,229.451 272.146,228.013 268.567,217.926 	"/>
	<polyline style="fill:#9CDD03;" points="252.334,222.497 257.636,236.446 260.109,235.009 252.334,222.497 	"/>
	<polyline style="fill:#9CDD03;" points="298.458,221.238 284.183,221.019 281.709,222.457 298.458,221.238 	"/>
	<polyline style="fill:#9CDD03;" points="289.573,230.053 272.146,228.013 269.673,229.451 289.573,230.053 	"/>
	<polyline style="fill:#9CDD03;" points="281.734,239.472 260.109,235.009 257.636,236.446 281.734,239.472 	"/>
	<path style="fill:#9CDD03;" d="M221.618,251.416c-0.007,0.004-0.016,0.007-0.024,0.012c-0.001,0.001-0.005,0.002-0.005,0.002
		c0.001-0.001,0.003-0.001,0.004-0.002c-0.443,0.255-0.718,0.799-0.72,1.576c-0.004,1.557,1.09,3.452,2.445,4.234
		c0.724,0.418,1.374,0.429,1.825,0.115c-0.026,0.019-0.052,0.04-0.079,0.055c0,0,71.654-42.155,71.226-42.468
		C295.616,214.552,223.174,250.641,221.618,251.416z"/>
</g>
<path style="fill:#FFA834;" d="M120.225,156.971L120.225,156.971c85.826-48.16,223.03-46.773,306.454,3.097
	c8.999,5.379,17,11.105,24.013,17.097c-9.812-11.625-22.894-22.572-39.29-32.373c-83.424-49.87-220.628-51.257-306.454-3.097l0,0
	C28.38,184.659,18.577,252.542,76.585,302.097C36.472,254.57,51.266,195.666,120.225,156.971z"/>
<g>
	<path style="fill:#FEC377;" d="M101.889,190.993c-14.654,8.222-14.986,21.791-0.743,30.306s37.669,8.751,52.323,0.529
		c14.654-8.222,14.986-21.791,0.743-30.306C139.968,183.008,116.542,182.771,101.889,190.993"/>
	<path style="fill:#FEC377;" d="M191.359,195.079c-8.745,4.907-8.943,13.005-0.443,18.086s22.48,5.222,31.226,0.316
		c8.745-4.907,8.943-13.005,0.443-18.086C214.085,190.313,200.104,190.171,191.359,195.079"/>
</g>
<path style="fill:#FFA834;" d="M221.066,251.425c-0.001,0.001-0.005,0.002-0.005,0.002
	C221.062,251.427,221.064,251.426,221.066,251.425c-0.47,0.271-0.763,0.85-0.765,1.673c-0.004,1.653,1.157,3.665,2.596,4.495
	c0.769,0.444,1.459,0.457,1.937,0.122c-0.028,0.02-0.055,0.042-0.085,0.059c0,0,6.328-3.723,15.316-9.025
	c-1.116-0.466-2.187-0.983-3.178-1.576c-1.124-0.672-2.104-1.394-2.942-2.153c-7.382,3.667-12.444,6.188-12.854,6.393
	C221.083,251.416,221.073,251.42,221.066,251.425z"/>
<path style="fill:#FEC377;" d="M153.313,254.548c-6.46,3.625-6.606,9.606-0.327,13.359s16.605,3.858,23.064,0.233
	c6.46-3.625,6.606-9.606,0.327-13.359C170.098,251.028,159.771,250.923,153.313,254.548"/>
<path style="fill:#D8D8DA;" d="M381.755,414.132c-3.358,1.877-7.864,4.332-11.32,6.022c-4.768,2.331-11.14,5.434-16.078,7.377
	c-6.896,2.714-16.185,6.109-23.23,8.406c-4.624,1.509-10.936,3.038-15.64,4.274c-5.45,1.433-18.547,3.913-24.803,4.648
	c-3.596,0.422-8.38,1.106-11.991,1.35c-3.421,0.231-7.978,0.605-11.403,0.755c-3.425,0.15-7.998,0.264-11.426,0.248
	c-6.831-0.033-15.932-0.563-22.747-1.023c-3.448-0.233-8.024-0.812-11.447-1.285c-3.617-0.501-8.446-1.174-12.022-1.916
	c-6.955-1.443-16.202-3.521-23.063-5.364c-3.989-1.072-9.243-2.742-13.145-4.098c-4.684-1.629-10.894-3.919-15.463-5.85
	c-3.395-1.435-7.924-3.356-11.228-4.989c-5.681-2.809-13.24-6.605-18.708-9.81c-4.265-2.499-9.907-5.918-14.004-8.685
	c-5.011-3.383-11.528-8.137-16.337-11.801c-2.917-2.224-6.691-5.344-9.444-7.768c-3.907-3.442-9.046-8.116-12.746-11.779
	c-2.562-2.538-5.923-5.981-8.345-8.653c-3.18-3.508-7.414-8.203-10.32-11.94c-4.379-5.634-10.043-13.288-14.107-19.153
	c-2.496-3.602-5.563-8.586-7.749-12.384c-2.119-3.681-4.946-8.594-6.817-12.407c-3.09-6.295-6.96-14.812-9.71-21.262
	c-1.604-3.762-3.423-8.909-4.745-12.779c-1.304-3.82-2.959-8.947-4.006-12.845c-1.81-6.74-3.894-15.814-5.312-22.646
	c-0.809-3.899-1.563-9.16-2.103-13.104c-0.538-3.932-1.164-9.192-1.422-13.152c-0.429-6.617-0.76-15.457-0.874-22.088
	c-0.106,37.325,23.967,74.751,72.429,103.722c98.546,58.91,260.619,60.547,362.002,3.658
	c51.526-28.913,77.458-67.378,77.568-105.952c0,3.519-0.129,8.212-0.297,11.727c-0.167,3.501-0.564,8.161-0.821,11.657
	c-0.289,3.943-1.078,9.164-1.557,13.09c-0.013,0.1-1.374,10.645-4.746,24.384c-0.948,3.863-2.272,9.006-3.494,12.792
	c-2.148,6.654-5.235,15.456-7.737,21.985c-1.453,3.791-3.684,8.731-5.405,12.408c-1.745,3.726-4.167,8.653-6.144,12.261
	c-3.4,6.206-8.291,14.284-12.089,20.256c-2.31,3.633-5.673,8.294-8.255,11.74c-2.665,3.556-6.278,8.259-9.2,11.606
	c-4.776,5.469-11.359,12.576-16.444,17.758c-3.391,3.457-8.197,7.78-11.867,10.939c-3.963,3.412-9.382,7.811-13.564,10.952
	C398.056,404.67,387.155,411.114,381.755,414.132z"/>
<path style="fill:#E0E0E2;" d="M77.568,84.476c101.382-56.889,263.456-55.252,362.002,3.658s96.245,152.784-5.138,209.673
	s-263.456,55.252-362.002-3.658S-23.814,141.365,77.568,84.476z M98.861,97.205c-89.284,50.1-91.311,132.772-4.526,184.651
	s229.518,53.322,318.802,3.221s91.311-132.772,4.525-184.651S188.146,47.104,98.861,97.205"/>
<g>
</g>
<g>
</g>
<g>
</g>
<g>
</g>
<g>
</g>
<g>
</g>
<g>
</g>
<g>
</g>
<g>
</g>
<g>
</g>
<g>
</g>
<g>
</g>
<g>
</g>
<g>
</g>
<g>
</g>
</svg>
