<?xml version="1.0" encoding="utf-8"?>
<!-- Generator: Adobe Illustrator 21.1.0, SVG Export Plug-In . SVG Version: 6.00 Build 0)  -->
<svg version="1.1" id="레이어_1" xmlns="http://www.w3.org/2000/svg" xmlns:xlink="http://www.w3.org/1999/xlink" x="0px"
	 y="0px" viewBox="0 0 500 500" style="enable-background:new 0 0 500 500;" xml:space="preserve">
<style type="text/css">
	.st0{fill:none;stroke:#FFFFFF;stroke-width:10;stroke-miterlimit:10;}
	.st1{fill:#FFFFFF;}
</style>
<circle class="st0" cx="250" cy="250" r="245"/>
<g>
	<g>
		<path class="st1" d="M358.4,221.5c-4.2,0-7.6,3.2-7.6,7.2v21.7h-15.1v-21.7c0-12-10.2-21.7-22.7-21.7h-65.6
			c-12.5,0-22.7,9.8-22.7,21.7v7.2v14.5h-4.1c2.6-4.3,4.1-9.2,4.1-14.5c0-16-13.6-29-30.3-29s-30.3,13-30.3,29
			c0,5.3,1.5,10.2,4.1,14.5h-19.2v-65.2c0-4-3.4-7.2-7.6-7.2c-4.2,0-7.6,3.2-7.6,7.2c0,3.5,0,127,0,130.5c0,4,3.4,7.2,7.6,7.2
			c4.2,0,7.6-3.2,7.6-7.2V294h201.7v21.7c0,4,3.4,7.2,7.6,7.2c4.2,0,7.6-3.2,7.6-7.2c0-2.9,0-82.5,0-87
			C366,224.7,362.6,221.5,358.4,221.5z M239.9,228.7c0-4,3.4-7.2,7.6-7.2H313c4.2,0,7.6,3.3,7.6,7.2v21.7h-80.7V228.7z M194.5,221.5
			c8.3,0,15.1,6.5,15.1,14.5s-6.8,14.5-15.1,14.5s-15.1-6.5-15.1-14.5C179.4,228,186.2,221.5,194.5,221.5z M350.9,279.5H149.1V265
			c9.5,0,193.8,0,201.7,0L350.9,279.5L350.9,279.5z"/>
	</g>
</g>
</svg>
