<?xml version="1.0" encoding="iso-8859-1"?>
<!-- Generator: Adobe Illustrator 17.1.0, SVG Export Plug-In . SVG Version: 6.00 Build 0)  -->
<!DOCTYPE svg PUBLIC "-//W3C//DTD SVG 1.1//EN" "http://www.w3.org/Graphics/SVG/1.1/DTD/svg11.dtd">
<svg xmlns="http://www.w3.org/2000/svg" xmlns:xlink="http://www.w3.org/1999/xlink" version="1.1" id="Capa_1" x="0px" y="0px" viewBox="0 0 191.886 191.886" style="enable-background:new 0 0 191.886 191.886;" xml:space="preserve" width="512px" height="512px">
<path d="M189.386,156.13h-14.317c-1.381,0-2.5-1.119-2.5-2.5v-18.441H20.503v18.441  c0,1.381-1.119,2.5-2.5,2.5H2.5c-1.381,0-2.5-1.119-2.5-2.5V38.255c0-1.381,1.119-2.5,2.5-2.5h15.503c1.381,0,2.5,1.119,2.5,2.5  v34.288c1.851-1.272,4.089-2.018,6.5-2.018h30.995c6.341,0,11.5,5.159,11.5,11.5v3.336c0,2.41-0.745,4.649-2.018,6.5h105.088V69.075  c0-1.381,1.119-2.5,2.5-2.5h14.317c1.381,0,2.5,1.119,2.5,2.5v84.556C191.886,155.011,190.767,156.13,189.386,156.13z   M177.568,151.13h9.317V71.575h-9.317V151.13z M5,151.13h10.503V40.755H5V151.13z M20.503,130.189h152.065v-8.829H20.503V130.189z   M20.503,116.36h152.065V96.862H20.503V116.36z M27.003,91.862h30.995c3.584,0,6.5-2.916,6.5-6.5v-3.336c0-3.584-2.916-6.5-6.5-6.5  H27.003c-3.584,0-6.5,2.916-6.5,6.5v3.336C20.503,88.946,23.419,91.862,27.003,91.862z" fill="#FFFFFF"/>
<g>
</g>
<g>
</g>
<g>
</g>
<g>
</g>
<g>
</g>
<g>
</g>
<g>
</g>
<g>
</g>
<g>
</g>
<g>
</g>
<g>
</g>
<g>
</g>
<g>
</g>
<g>
</g>
<g>
</g>
</svg>
